<?xml version="1.0" encoding="UTF-8"?>
<svg xmlns="http://www.w3.org/2000/svg" viewBox="0 0 490 128" role="img" aria-labelledby="title desc" data-claux-asset="claux-compact-reverse" shape-rendering="geometricPrecision">
  <title id="title">CLAUX compact reverse logo</title>
  <desc id="desc">Compact CLAUX trademark lockup for navigation and product headers.</desc>
  <g data-part="symbol" transform="scale(.5)">
    <path data-part="enclosing-c" fill="#9BB8AD" d="M240 38H222C217 38 213 36 209 32L204 27C200 23 195 20 188 20H132C69 20 18 68 18 128C18 188 69 236 132 236H188C195 236 200 233 204 229L209 224C213 220 217 218 222 218H240C246 218 250 214 250 208V196C250 190 246 186 240 186H214C208 186 203 188 199 192L193 198C190 202 186 204 181 204H132C88 204 52 170 52 128C52 86 88 52 132 52H181C186 52 190 54 193 58L199 64C203 68 208 70 214 70H240C246 70 250 66 250 60V50C250 42 246 38 240 38Z"/>
    <path data-part="lambda" fill="#D99A2B" transform="translate(23.4 10.6) scale(.82 .92)" d="M130 72C120 72 116 78 112 88L78 172C75 180 70 185 62 186L60 192H101L103 186C94 184 92 179 95 171L130 92L165 171C168 179 166 184 157 186L159 192H200L198 186C190 185 185 180 182 172L148 88C144 78 140 72 130 72Z"/>
  </g>
  <g data-part="wordmark" transform="translate(-18 -7) scale(.55)">
    <path data-letter="c" fill="#9BB8AD" d="M388 76H326C307 76 296 88 296 106V150C296 168 307 180 326 180H388V158H330C322 158 318 154 318 146V110C318 102 322 98 330 98H388Z"/>
    <path data-letter="l" fill="#9BB8AD" d="M416 76H438V151C438 156 442 158 447 158H510V180H444C426 180 416 170 416 152Z"/>
    <path data-letter="lambda" fill="#D99A2B" transform="translate(490 16) scale(.84)" d="M130 72C120 72 116 78 112 88L78 172C75 180 70 185 62 186L60 192H101L103 186C94 184 92 179 95 171L130 92L165 171C168 179 166 184 157 186L159 192H200L198 186C190 185 185 180 182 172L148 88C144 78 140 72 130 72Z"/>
    <path data-letter="u" fill="#9BB8AD" d="M682 76H704V147C704 155 710 159 719 159H740C749 159 755 155 755 147V76H777V149C777 169 764 180 742 180H717C695 180 682 169 682 149Z"/>
    <path data-letter="x" fill="#9BB8AD" d="M803 76H830L852 104L875 76H902L866 128L903 180H876L852 151L829 180H802L839 128Z"/>
  </g>
</svg>
