<svg xmlns="http://www.w3.org/2000/svg" width="1200" height="900" viewBox="0 0 1200 900" role="img" aria-labelledby="title desc">
  <title id="title">Plan conceptual RobSer Family 120</title>
  <desc id="desc">Schemă orientativă în L pentru o casă parter cu trei dormitoare, birou flexibil, două băi și terasă protejată.</desc>
  <rect width="1200" height="900" fill="#fffdf9"/>
  <g font-family="Arial, Helvetica, sans-serif" fill="#171815">
    <text x="72" y="74" font-size="18" font-weight="700" letter-spacing="3" fill="#805600">ROBSER FAMILY 120</text>
    <text x="72" y="123" font-size="34" font-weight="700">Plan conceptual · parter</text>
    <text x="1128" y="76" font-size="18" font-weight="700" text-anchor="end">~121 m² utili</text>
    <text x="1128" y="108" font-size="15" text-anchor="end" fill="#65675f">3 dormitoare · birou flexibil · 2 băi</text>
  </g>

  <g stroke="#171815" stroke-width="6" stroke-linejoin="miter">
    <path d="M82 180H1118V740H790V520H82Z" fill="#f7f5f0"/>
    <rect x="82" y="180" width="378" height="340" fill="#f2e6c7"/>
    <rect x="460" y="180" width="184" height="246" fill="#f2e6c7"/>
    <rect x="460" y="426" width="92" height="94" fill="#e4e1d8"/>
    <rect x="552" y="426" width="92" height="94" fill="#e4e1d8"/>
    <rect x="644" y="180" width="146" height="168" fill="#ece9e1"/>
    <rect x="644" y="348" width="74" height="172" fill="#fffdf9"/>
    <rect x="718" y="348" width="72" height="172" fill="#fffdf9"/>
    <rect x="790" y="180" width="164" height="190" fill="#ece9e1"/>
    <rect x="954" y="180" width="164" height="190" fill="#ece9e1"/>
    <rect x="790" y="370" width="128" height="142" fill="#e4e1d8"/>
    <rect x="918" y="370" width="200" height="142" fill="#fffdf9"/>
    <rect x="790" y="512" width="236" height="228" fill="#ece9e1"/>
    <rect x="1026" y="512" width="92" height="118" fill="#e4e1d8"/>
    <rect x="1026" y="630" width="92" height="110" fill="#fffdf9"/>
    <rect x="82" y="520" width="708" height="102" fill="#dfe5d8" stroke-dasharray="12 10"/>
  </g>

  <g font-family="Arial, Helvetica, sans-serif" text-anchor="middle" fill="#171815">
    <g transform="translate(271 334)"><text font-size="24" font-weight="700">Living + dining</text><text y="31" font-size="17" fill="#65675f">~31 m²</text></g>
    <g transform="translate(552 292)"><text font-size="20" font-weight="700">Bucătărie</text><text y="27" font-size="15" fill="#65675f">~12 m²</text></g>
    <g transform="translate(506 464)"><text font-size="14" font-weight="700">Cămară</text><text y="19" font-size="12" fill="#65675f">~3 m²</text></g>
    <g transform="translate(598 464)"><text font-size="13" font-weight="700">Tehnic</text><text y="19" font-size="12" fill="#65675f">~3,7 m²</text></g>
    <g transform="translate(717 254)"><text font-size="18" font-weight="700">Birou / flex</text><text y="25" font-size="14" fill="#65675f">~7 m²</text></g>
    <g transform="translate(681 418)"><text font-size="14" font-weight="700">Vestibul</text><text y="20" font-size="12" fill="#65675f">~5 m²</text></g>
    <g transform="translate(754 418)"><text font-size="14" font-weight="700">Hol</text><text y="20" font-size="12" fill="#65675f">~8,5 m²</text></g>
    <g transform="translate(872 266)"><text font-size="18" font-weight="700">Dormitor 2</text><text y="25" font-size="14" fill="#65675f">~12 m²</text></g>
    <g transform="translate(1036 266)"><text font-size="18" font-weight="700">Dormitor 3</text><text y="25" font-size="14" fill="#65675f">~12 m²</text></g>
    <g transform="translate(854 426)"><text font-size="17" font-weight="700">Baie</text><text y="23" font-size="13" fill="#65675f">~6,5 m²</text></g>
    <g transform="translate(1018 426)"><text font-size="16" font-weight="700">Circulație privată</text></g>
    <g transform="translate(908 610)"><text font-size="21" font-weight="700">Dormitor principal</text><text y="28" font-size="15" fill="#65675f">~15,5 m²</text></g>
    <g transform="translate(1072 558)"><text font-size="13" font-weight="700">Baie</text><text y="18" font-size="11" fill="#65675f">~4,8 m²</text></g>
    <g transform="translate(436 565)"><text font-size="17" font-weight="700">Terasă acoperită</text><text y="23" font-size="14" fill="#65675f">~24 m² · exterior</text></g>
  </g>

  <g font-family="Arial, Helvetica, sans-serif">
    <g transform="translate(82 820)"><rect width="190" height="38" fill="#171815"/><text x="95" y="25" fill="#fffdf9" font-size="14" font-weight="700" text-anchor="middle" letter-spacing="1.3">MODEL CONCEPTUAL</text></g>
    <text x="296" y="837" fill="#65675f" font-size="15">Suprafețe orientative. Nu este plan pentru autorizare sau execuție.</text>
    <g transform="translate(1078 790)" fill="#171815" text-anchor="middle"><path d="M0 38V0M0 0L-9 16M0 0L9 16" stroke="#171815" stroke-width="3" fill="none"/><text y="58" font-size="14" font-weight="700">N</text></g>
  </g>
</svg>
